<svg width="400" height="167" viewBox="0 0 400 167" fill="none" xmlns="http://www.w3.org/2000/svg">
<path d="M393.652 26.8125H7.20312V73.5H393.652V26.8125Z" fill="url(#paint0_linear_12_2)" fill-opacity="0.6"/>
<path d="M23.8733 72.2281V107H7.1922V26.8053H23.4035V57.4657H24.1083C25.4658 53.9154 27.6586 51.1352 30.6868 49.1251C33.715 47.0889 37.5132 46.0708 42.0816 46.0708C46.2584 46.0708 49.9001 46.9845 53.0066 48.8118C56.1392 50.6131 58.567 53.2105 60.2899 56.6042C62.0389 59.9717 62.9004 64.005 62.8743 68.7039V107H46.1932V71.6799C46.2193 67.9729 45.2795 65.0883 43.3738 63.026C41.4943 60.9637 38.8576 59.9326 35.464 59.9326C33.1929 59.9326 31.1828 60.4155 29.4337 61.3814C27.7108 62.3473 26.3533 63.757 25.3613 65.6104C24.3954 67.4378 23.8995 69.6437 23.8733 72.2281ZM114.835 81.3909V46.854H131.516V107H115.5V96.075H114.874C113.516 99.5992 111.258 102.432 108.099 104.572C104.967 106.713 101.142 107.783 96.6263 107.783C92.6061 107.783 89.0688 106.869 86.0145 105.042C82.9603 103.215 80.5716 100.617 78.8487 97.2498C77.1519 93.8822 76.2904 89.849 76.2643 85.1501V46.854H92.9454V82.1741C92.9715 85.7244 93.9244 88.5307 95.8039 90.593C97.6835 92.6553 100.203 93.6864 103.361 93.6864C105.371 93.6864 107.251 93.2296 109 92.3159C110.749 91.3761 112.159 89.9926 113.229 88.1652C114.325 86.3379 114.861 84.0798 114.835 81.3909ZM172.531 108.175C166.344 108.175 161.019 106.922 156.555 104.416C152.117 101.883 148.697 98.307 146.296 93.6864C143.894 89.0397 142.693 83.5446 142.693 77.2011C142.693 71.0142 143.894 65.5843 146.296 60.9115C148.697 56.2387 152.078 52.5971 156.438 49.9866C160.823 47.3761 165.966 46.0708 171.866 46.0708C175.834 46.0708 179.527 46.7104 182.947 47.9895C186.393 49.2426 189.395 51.1352 191.954 53.6674C194.538 56.1996 196.548 59.3844 197.984 63.2218C199.42 67.0332 200.137 71.4971 200.137 76.6137V81.1952H149.35V70.8576H184.435C184.435 68.4559 183.913 66.3283 182.869 64.4749C181.825 62.6214 180.376 61.1726 178.522 60.1284C176.695 59.0581 174.568 58.5229 172.14 58.5229C169.608 58.5229 167.363 59.1103 165.405 60.285C163.473 61.4336 161.959 62.9869 160.862 64.9448C159.766 66.8765 159.205 69.0302 159.179 71.4058V81.2343C159.179 84.2103 159.727 86.7816 160.823 88.9484C161.946 91.1151 163.525 92.7858 165.561 93.9605C167.597 95.1353 170.012 95.7226 172.805 95.7226C174.659 95.7226 176.356 95.4616 177.896 94.9395C179.436 94.4174 180.754 93.6342 181.851 92.59C182.947 91.5458 183.783 90.2667 184.357 88.7526L199.785 89.7707C199.002 93.4776 197.396 96.7146 194.969 99.4817C192.567 102.223 189.46 104.363 185.649 105.904C181.864 107.418 177.491 108.175 172.531 108.175ZM227.967 26.8053V107H211.286V26.8053H227.967ZM258.273 26.8053V107H241.592V26.8053H258.273ZM299.308 108.175C293.121 108.175 287.796 106.922 283.332 104.416C278.894 101.883 275.474 98.307 273.073 93.6864C270.671 89.0397 269.47 83.5446 269.47 77.2011C269.47 71.0142 270.671 65.5843 273.073 60.9115C275.474 56.2387 278.855 52.5971 283.214 49.9866C287.6 47.3761 292.743 46.0708 298.642 46.0708C302.61 46.0708 306.304 46.7104 309.724 47.9895C313.17 49.2426 316.172 51.1352 318.73 53.6674C321.315 56.1996 323.325 59.3844 324.761 63.2218C326.196 67.0332 326.914 71.4971 326.914 76.6137V81.1952H276.127V70.8576H311.212C311.212 68.4559 310.69 66.3283 309.646 64.4749C308.602 62.6214 307.153 61.1726 305.299 60.1284C303.472 59.0581 301.344 58.5229 298.917 58.5229C296.384 58.5229 294.139 59.1103 292.181 60.285C290.25 61.4336 288.736 62.9869 287.639 64.9448C286.543 66.8765 285.982 69.0302 285.955 71.4058V81.2343C285.955 84.2103 286.504 86.7816 287.6 88.9484C288.723 91.1151 290.302 92.7858 292.338 93.9605C294.374 95.1353 296.789 95.7226 299.582 95.7226C301.436 95.7226 303.133 95.4616 304.673 94.9395C306.213 94.4174 307.531 93.6342 308.628 92.59C309.724 91.5458 310.559 90.2667 311.134 88.7526L326.562 89.7707C325.779 93.4776 324.173 96.7146 321.745 99.4817C319.344 102.223 316.237 104.363 312.426 105.904C308.641 107.418 304.268 108.175 299.308 108.175ZM354.744 72.2281V107H338.062V46.854H353.96V57.4657H354.665C355.997 53.9676 358.229 51.2004 361.361 49.1643C364.494 47.102 368.292 46.0708 372.756 46.0708C376.933 46.0708 380.575 46.9845 383.681 48.8118C386.788 50.6392 389.202 53.2497 390.925 56.6434C392.648 60.0109 393.51 64.0311 393.51 68.7039V107H376.828V71.6799C376.855 67.9991 375.915 65.1275 374.009 63.0652C372.103 60.9768 369.48 59.9326 366.138 59.9326C363.893 59.9326 361.909 60.4155 360.187 61.3814C358.49 62.3473 357.158 63.757 356.192 65.6104C355.253 67.4378 354.77 69.6437 354.744 72.2281ZM186.855 157.441C184.78 157.441 182.988 157.069 181.481 156.325C179.973 155.581 178.813 154.572 178.001 153.3C177.198 152.017 176.796 150.588 176.796 149.012C176.796 147.837 177.031 146.795 177.501 145.884C177.971 144.974 178.627 144.137 179.469 143.373C180.311 142.6 181.29 141.831 182.406 141.068L188.235 137.235C188.989 136.756 189.542 136.251 189.895 135.723C190.247 135.184 190.423 134.602 190.423 133.975C190.423 133.378 190.183 132.825 189.704 132.316C189.224 131.807 188.544 131.557 187.663 131.567C187.075 131.567 186.566 131.699 186.136 131.964C185.705 132.218 185.367 132.556 185.122 132.977C184.887 133.388 184.77 133.848 184.77 134.357C184.77 134.984 184.946 135.62 185.299 136.266C185.651 136.912 186.121 137.597 186.708 138.322C187.296 139.036 187.937 139.81 188.632 140.642L202.89 157H196.37L184.476 143.755C183.693 142.864 182.91 141.934 182.127 140.965C181.353 139.986 180.707 138.948 180.188 137.852C179.67 136.746 179.41 135.547 179.41 134.254C179.41 132.796 179.748 131.484 180.423 130.319C181.109 129.154 182.068 128.234 183.301 127.558C184.535 126.873 185.974 126.531 187.619 126.531C189.224 126.531 190.609 126.858 191.774 127.514C192.949 128.16 193.85 129.022 194.476 130.099C195.112 131.166 195.431 132.341 195.431 133.623C195.431 135.042 195.078 136.33 194.373 137.485C193.678 138.63 192.699 139.658 191.436 140.569L185.299 144.988C184.466 145.595 183.85 146.217 183.448 146.853C183.057 147.48 182.861 148.082 182.861 148.659C182.861 149.374 183.037 150.015 183.39 150.583C183.742 151.151 184.241 151.601 184.887 151.934C185.533 152.257 186.292 152.419 187.163 152.419C188.221 152.419 189.263 152.179 190.291 151.699C191.329 151.21 192.269 150.519 193.11 149.629C193.962 148.728 194.642 147.661 195.152 146.427C195.661 145.194 195.915 143.828 195.915 142.331H201.099C201.099 144.171 200.898 145.83 200.497 147.308C200.095 148.777 199.537 150.059 198.823 151.156C198.108 152.242 197.291 153.133 196.37 153.828C196.077 154.014 195.793 154.19 195.519 154.357C195.245 154.523 194.961 154.699 194.667 154.885C193.551 155.786 192.303 156.437 190.923 156.838C189.552 157.24 188.196 157.441 186.855 157.441ZM225.454 157.441C223.144 157.441 221.157 156.951 219.493 155.972C217.838 154.983 216.566 153.613 215.675 151.861C214.794 150.108 214.353 148.092 214.353 145.811C214.353 143.5 214.799 141.474 215.689 139.732C216.59 137.979 217.868 136.614 219.522 135.635C221.176 134.646 223.144 134.152 225.425 134.152C227.393 134.152 229.116 134.509 230.594 135.223C232.072 135.938 233.242 136.942 234.103 138.234C234.965 139.526 235.44 141.043 235.528 142.786H229.625C229.458 141.66 229.018 140.754 228.303 140.069C227.598 139.374 226.673 139.027 225.528 139.027C224.559 139.027 223.712 139.291 222.987 139.82C222.273 140.338 221.715 141.097 221.314 142.096C220.912 143.094 220.711 144.303 220.711 145.723C220.711 147.162 220.907 148.385 221.299 149.394C221.7 150.402 222.263 151.17 222.987 151.699C223.712 152.228 224.559 152.492 225.528 152.492C226.242 152.492 226.884 152.345 227.451 152.051C228.029 151.758 228.504 151.332 228.876 150.774C229.258 150.206 229.507 149.526 229.625 148.733H235.528C235.43 150.456 234.96 151.973 234.118 153.285C233.286 154.587 232.136 155.605 230.667 156.339C229.199 157.073 227.461 157.441 225.454 157.441ZM249.822 157.441C247.541 157.441 245.568 156.956 243.904 155.987C242.25 155.008 240.972 153.647 240.072 151.905C239.171 150.152 238.721 148.121 238.721 145.811C238.721 143.481 239.171 141.445 240.072 139.702C240.972 137.95 242.25 136.589 243.904 135.62C245.568 134.641 247.541 134.152 249.822 134.152C252.103 134.152 254.071 134.641 255.725 135.62C257.389 136.589 258.672 137.95 259.572 139.702C260.473 141.445 260.923 143.481 260.923 145.811C260.923 148.121 260.473 150.152 259.572 151.905C258.672 153.647 257.389 155.008 255.725 155.987C254.071 156.956 252.103 157.441 249.822 157.441ZM249.851 152.595C250.889 152.595 251.755 152.301 252.45 151.714C253.145 151.117 253.669 150.304 254.022 149.276C254.384 148.248 254.565 147.078 254.565 145.767C254.565 144.455 254.384 143.285 254.022 142.257C253.669 141.229 253.145 140.417 252.45 139.82C251.755 139.222 250.889 138.924 249.851 138.924C248.804 138.924 247.923 139.222 247.208 139.82C246.503 140.417 245.97 141.229 245.608 142.257C245.255 143.285 245.079 144.455 245.079 145.767C245.079 147.078 245.255 148.248 245.608 149.276C245.97 150.304 246.503 151.117 247.208 151.714C247.923 152.301 248.804 152.595 249.851 152.595ZM265.089 157V134.445H271.051V138.425H271.315C271.785 137.103 272.568 136.06 273.665 135.297C274.761 134.533 276.073 134.152 277.6 134.152C279.147 134.152 280.463 134.538 281.55 135.312C282.637 136.075 283.361 137.113 283.723 138.425H283.958C284.418 137.132 285.25 136.1 286.454 135.326C287.668 134.543 289.102 134.152 290.757 134.152C292.862 134.152 294.57 134.822 295.882 136.163C297.203 137.495 297.864 139.384 297.864 141.831V157H291.623V143.065C291.623 141.812 291.29 140.872 290.625 140.245C289.959 139.619 289.127 139.306 288.128 139.306C286.993 139.306 286.107 139.668 285.471 140.392C284.834 141.107 284.516 142.052 284.516 143.226V157H278.452V142.933C278.452 141.826 278.133 140.945 277.497 140.29C276.871 139.634 276.043 139.306 275.015 139.306C274.32 139.306 273.694 139.482 273.136 139.834C272.588 140.177 272.152 140.662 271.829 141.288C271.506 141.905 271.344 142.629 271.344 143.461V157H265.089ZM302.904 165.458V134.445H309.071V138.234H309.35C309.624 137.627 310.02 137.01 310.539 136.384C311.068 135.747 311.753 135.219 312.595 134.798C313.447 134.367 314.504 134.152 315.767 134.152C317.411 134.152 318.929 134.582 320.319 135.444C321.709 136.295 322.82 137.583 323.652 139.306C324.484 141.019 324.9 143.168 324.9 145.752C324.9 148.268 324.494 150.392 323.682 152.125C322.879 153.848 321.782 155.155 320.392 156.046C319.012 156.927 317.465 157.367 315.752 157.367C314.538 157.367 313.505 157.166 312.654 156.765C311.812 156.364 311.122 155.86 310.583 155.253C310.045 154.636 309.634 154.014 309.35 153.388H309.159V165.458H302.904ZM309.027 145.723C309.027 147.064 309.213 148.234 309.585 149.232C309.957 150.231 310.495 151.009 311.2 151.567C311.905 152.115 312.761 152.389 313.77 152.389C314.788 152.389 315.649 152.11 316.354 151.552C317.059 150.984 317.593 150.201 317.955 149.203C318.327 148.194 318.513 147.034 318.513 145.723C318.513 144.421 318.332 143.275 317.969 142.287C317.607 141.298 317.074 140.524 316.369 139.966C315.664 139.408 314.798 139.129 313.77 139.129C312.752 139.129 311.89 139.399 311.185 139.937C310.49 140.476 309.957 141.239 309.585 142.228C309.213 143.217 309.027 144.381 309.027 145.723ZM335.601 157.426C334.162 157.426 332.879 157.176 331.753 156.677C330.628 156.168 329.737 155.419 329.081 154.43C328.435 153.432 328.112 152.189 328.112 150.701C328.112 149.447 328.342 148.395 328.802 147.543C329.262 146.692 329.889 146.007 330.681 145.488C331.474 144.969 332.375 144.577 333.383 144.313C334.401 144.049 335.469 143.863 336.584 143.755C337.896 143.618 338.954 143.491 339.756 143.373C340.559 143.246 341.141 143.06 341.504 142.815C341.866 142.57 342.047 142.208 342.047 141.729V141.64C342.047 140.71 341.753 139.991 341.166 139.482C340.588 138.973 339.766 138.718 338.699 138.718C337.573 138.718 336.677 138.968 336.012 139.467C335.346 139.957 334.906 140.573 334.69 141.317L328.905 140.847C329.198 139.477 329.776 138.292 330.637 137.294C331.499 136.286 332.61 135.512 333.971 134.974C335.341 134.426 336.927 134.152 338.728 134.152C339.981 134.152 341.181 134.298 342.326 134.592C343.481 134.886 344.504 135.341 345.395 135.958C346.296 136.574 347.005 137.367 347.524 138.337C348.043 139.296 348.302 140.446 348.302 141.787V157H342.37V153.872H342.194C341.832 154.577 341.347 155.199 340.74 155.737C340.133 156.266 339.404 156.682 338.552 156.985C337.7 157.279 336.717 157.426 335.601 157.426ZM337.392 153.109C338.312 153.109 339.125 152.928 339.83 152.565C340.535 152.193 341.088 151.694 341.489 151.068C341.89 150.441 342.091 149.731 342.091 148.938V146.545C341.895 146.672 341.626 146.79 341.283 146.897C340.951 146.995 340.574 147.088 340.153 147.176C339.732 147.255 339.311 147.328 338.89 147.397C338.469 147.455 338.087 147.509 337.745 147.558C337.01 147.666 336.369 147.837 335.821 148.072C335.273 148.307 334.847 148.625 334.543 149.027C334.24 149.418 334.088 149.908 334.088 150.495C334.088 151.347 334.397 151.998 335.013 152.448C335.64 152.888 336.433 153.109 337.392 153.109ZM359.509 143.961V157H353.254V134.445H359.216V138.425H359.48C359.979 137.113 360.816 136.075 361.991 135.312C363.166 134.538 364.59 134.152 366.264 134.152C367.83 134.152 369.196 134.494 370.361 135.179C371.526 135.865 372.431 136.844 373.077 138.116C373.724 139.379 374.047 140.887 374.047 142.639V157H367.791V143.755C367.801 142.375 367.449 141.298 366.734 140.524C366.019 139.741 365.035 139.35 363.782 139.35C362.941 139.35 362.197 139.531 361.55 139.893C360.914 140.255 360.415 140.784 360.053 141.479C359.7 142.164 359.519 142.991 359.509 143.961ZM382.129 165.458C381.337 165.458 380.593 165.394 379.897 165.267C379.212 165.15 378.644 164.998 378.194 164.812L379.604 160.142C380.338 160.368 380.999 160.49 381.586 160.509C382.183 160.529 382.697 160.392 383.128 160.098C383.568 159.805 383.926 159.305 384.2 158.601L384.567 157.646L376.476 134.445H383.055L387.724 151.009H387.959L392.673 134.445H399.295L390.529 159.438C390.108 160.651 389.535 161.709 388.811 162.609C388.096 163.52 387.191 164.22 386.094 164.709C384.998 165.208 383.676 165.458 382.129 165.458Z" fill="white"/>
<defs>
<linearGradient id="paint0_linear_12_2" x1="2.6847" y1="52.1775" x2="397.694" y2="48.0522" gradientUnits="userSpaceOnUse">
<stop stop-color="#DC2626"/>
<stop offset="0.197917" stop-color="#CA8A04"/>
<stop offset="0.421875" stop-color="#FFF500"/>
<stop offset="0.598958" stop-color="#16A34A"/>
<stop offset="0.786458" stop-color="#2563EB"/>
<stop offset="1" stop-color="#9333EA"/>
</linearGradient>
</defs>
</svg>
