<svg width="200" height="86" viewBox="0 0 200 86" fill="none" xmlns="http://www.w3.org/2000/svg">
<rect y="6" width="200" height="80" fill="#0E1116"/>
<path d="M196.826 13.4062H3.60156V36.75H196.826V13.4062Z" fill="url(#paint0_linear_5_11)" fill-opacity="0.6"/>
<path d="M11.9366 36.1141V53.5H3.59607V13.4026H11.7017V28.7328H12.0541C12.7329 26.9577 13.8293 25.5676 15.3434 24.5625C16.8575 23.5444 18.7566 23.0354 21.0408 23.0354C23.1292 23.0354 24.95 23.4922 26.5033 24.4059C28.0696 25.3065 29.2835 26.6052 30.1449 28.3021C31.0194 29.9858 31.4502 32.0025 31.4371 34.352V53.5H23.0966V35.84C23.1096 33.9865 22.6397 32.5442 21.6869 31.513C20.7471 30.4819 19.4288 29.9663 17.732 29.9663C16.5964 29.9663 15.5914 30.2078 14.7168 30.6907C13.8554 31.1737 13.1766 31.8785 12.6806 32.8052C12.1977 33.7189 11.9497 34.8219 11.9366 36.1141ZM57.4175 40.6954V23.427H65.758V53.5H57.75V48.0375H57.437C56.758 49.7996 55.629 51.216 54.0495 52.286C52.4835 53.3565 50.571 53.8915 48.3131 53.8915C46.303 53.8915 44.5344 53.4345 43.0072 52.521C41.4801 51.6075 40.2858 50.3085 39.4243 48.6249C38.5759 46.9411 38.1452 44.9245 38.1321 42.5751V23.427H46.4727V41.0871C46.4857 42.8622 46.9622 44.2654 47.9019 45.2965C48.8417 46.3277 50.1015 46.8432 51.6805 46.8432C52.6855 46.8432 53.6255 46.6148 54.5 46.158C55.3745 45.6881 56.0795 44.9963 56.6145 44.0826C57.1625 43.1689 57.4305 42.0399 57.4175 40.6954ZM86.2655 54.0875C83.172 54.0875 80.5095 53.461 78.2775 52.208C76.0585 50.9415 74.3485 49.1535 73.148 46.8432C71.947 44.5199 71.3465 41.7723 71.3465 38.6006C71.3465 35.5071 71.947 32.7921 73.148 30.4557C74.3485 28.1193 76.039 26.2985 78.219 24.9933C80.4115 23.688 82.983 23.0354 85.933 23.0354C87.917 23.0354 89.7635 23.3552 91.4735 23.9947C93.1965 24.6213 94.6975 25.5676 95.977 26.8337C97.269 28.0998 98.274 29.6922 98.992 31.6109C99.71 33.5166 100.068 35.7486 100.068 38.3069V40.5976H74.675V35.4288H92.2175C92.2175 34.2279 91.9565 33.1641 91.4345 32.2374C90.9125 31.3107 90.188 30.5863 89.261 30.0642C88.3475 29.529 87.284 29.2614 86.07 29.2614C84.804 29.2614 83.6815 29.5551 82.7025 30.1425C81.7365 30.7168 80.9795 31.4935 80.431 32.4724C79.883 33.4383 79.6025 34.5151 79.5895 35.7029V40.6171C79.5895 42.1051 79.8635 43.3908 80.4115 44.4742C80.973 45.5576 81.7625 46.3929 82.7805 46.9803C83.7985 47.5677 85.006 47.8613 86.4025 47.8613C87.3295 47.8613 88.178 47.7308 88.948 47.4697C89.718 47.2087 90.377 46.8171 90.9255 46.295C91.4735 45.7729 91.8915 45.1334 92.1785 44.3763L99.8925 44.8853C99.501 46.7388 98.698 48.3573 97.4845 49.7408C96.2835 51.1115 94.73 52.1815 92.8245 52.952C90.932 53.709 88.7455 54.0875 86.2655 54.0875ZM113.983 13.4026V53.5H105.643V13.4026H113.983ZM129.136 13.4026V53.5H120.796V13.4026H129.136ZM149.654 54.0875C146.56 54.0875 143.898 53.461 141.666 52.208C139.447 50.9415 137.737 49.1535 136.536 46.8432C135.335 44.5199 134.735 41.7723 134.735 38.6006C134.735 35.5071 135.335 32.7921 136.536 30.4557C137.737 28.1193 139.427 26.2985 141.607 24.9933C143.8 23.688 146.371 23.0354 149.321 23.0354C151.305 23.0354 153.152 23.3552 154.862 23.9947C156.585 24.6213 158.086 25.5676 159.365 26.8337C160.657 28.0998 161.662 29.6922 162.38 31.6109C163.098 33.5166 163.457 35.7486 163.457 38.3069V40.5976H138.063V35.4288H155.606C155.606 34.2279 155.345 33.1641 154.823 32.2374C154.301 31.3107 153.576 30.5863 152.649 30.0642C151.736 29.529 150.672 29.2614 149.458 29.2614C148.192 29.2614 147.069 29.5551 146.09 30.1425C145.125 30.7168 144.368 31.4935 143.819 32.4724C143.271 33.4383 142.991 34.5151 142.977 35.7029V40.6171C142.977 42.1051 143.252 43.3908 143.8 44.4742C144.361 45.5576 145.151 46.3929 146.169 46.9803C147.187 47.5677 148.394 47.8613 149.791 47.8613C150.718 47.8613 151.566 47.7308 152.336 47.4697C153.106 47.2087 153.765 46.8171 154.314 46.295C154.862 45.7729 155.279 45.1334 155.567 44.3763L163.281 44.8853C162.889 46.7388 162.086 48.3573 160.872 49.7408C159.672 51.1115 158.118 52.1815 156.213 52.952C154.32 53.709 152.134 54.0875 149.654 54.0875ZM177.372 36.1141V53.5H169.031V23.427H176.98V28.7328H177.332C177.998 26.9838 179.114 25.6002 180.68 24.5821C182.247 23.551 184.146 23.0354 186.378 23.0354C188.466 23.0354 190.287 23.4922 191.84 24.4059C193.394 25.3196 194.601 26.6248 195.462 28.3217C196.324 30.0054 196.755 32.0156 196.755 34.352V53.5H188.414V35.84C188.427 33.9996 187.957 32.5638 187.004 31.5326C186.051 30.4884 184.74 29.9663 183.069 29.9663C181.946 29.9663 180.954 30.2078 180.093 30.6907C179.245 31.1737 178.579 31.8785 178.096 32.8052C177.626 33.7189 177.385 34.8219 177.372 36.1141ZM93.4275 78.7205C92.39 78.7205 91.494 78.5345 90.7405 78.1625C89.9865 77.7905 89.4065 77.286 89.0005 76.65C88.599 76.0085 88.398 75.294 88.398 74.506C88.398 73.9185 88.5155 73.3975 88.7505 72.942C88.9855 72.487 89.3135 72.0685 89.7345 71.6865C90.1555 71.3 90.645 70.9155 91.203 70.534L94.1175 68.6175C94.4945 68.378 94.771 68.1255 94.9475 67.8615C95.1235 67.592 95.2115 67.301 95.2115 66.9875C95.2115 66.689 95.0915 66.4125 94.852 66.158C94.612 65.9035 94.272 65.7785 93.8315 65.7835C93.5375 65.7835 93.283 65.8495 93.068 65.982C92.8525 66.109 92.6835 66.278 92.561 66.4885C92.4435 66.694 92.385 66.924 92.385 67.1785C92.385 67.492 92.473 67.81 92.6495 68.133C92.8255 68.456 93.0605 68.7985 93.354 69.161C93.648 69.518 93.9685 69.905 94.316 70.321L101.445 78.5H98.185L92.238 71.8775C91.8465 71.432 91.455 70.967 91.0635 70.4825C90.6765 69.993 90.3535 69.474 90.094 68.926C89.835 68.373 89.705 67.7735 89.705 67.127C89.705 66.398 89.874 65.742 90.2115 65.1595C90.5545 64.577 91.034 64.117 91.6505 63.779C92.2675 63.4365 92.987 63.2655 93.8095 63.2655C94.612 63.2655 95.3045 63.429 95.887 63.757C96.4745 64.08 96.925 64.511 97.238 65.0495C97.556 65.583 97.7155 66.1705 97.7155 66.8115C97.7155 67.521 97.539 68.165 97.1865 68.7425C96.839 69.315 96.3495 69.829 95.718 70.2845L92.6495 72.494C92.233 72.7975 91.925 73.1085 91.724 73.4265C91.5285 73.74 91.4305 74.041 91.4305 74.3295C91.4305 74.687 91.5185 75.0075 91.695 75.2915C91.871 75.5755 92.1205 75.8005 92.4435 75.967C92.7665 76.1285 93.146 76.2095 93.5815 76.2095C94.1105 76.2095 94.6315 76.0895 95.1455 75.8495C95.6645 75.605 96.1345 75.2595 96.555 74.8145C96.981 74.364 97.321 73.8305 97.576 73.2135C97.8305 72.597 97.9575 71.914 97.9575 71.1655H100.549C100.549 72.0855 100.449 72.915 100.248 73.654C100.047 74.3885 99.7685 75.0295 99.4115 75.578C99.054 76.121 98.6455 76.5665 98.185 76.914C98.0385 77.007 97.8965 77.095 97.7595 77.1785C97.6225 77.2615 97.4805 77.3495 97.3335 77.4425C96.7755 77.893 96.1515 78.2185 95.4615 78.419C94.776 78.62 94.098 78.7205 93.4275 78.7205ZM112.727 78.7205C111.572 78.7205 110.578 78.4755 109.746 77.986C108.919 77.4915 108.283 76.8065 107.837 75.9305C107.397 75.054 107.176 74.046 107.176 72.9055C107.176 71.75 107.399 70.737 107.844 69.866C108.295 68.9895 108.934 68.307 109.761 67.8175C110.588 67.323 111.572 67.076 112.712 67.076C113.696 67.076 114.558 67.2545 115.297 67.6115C116.036 67.969 116.621 68.471 117.051 69.117C117.482 69.763 117.72 70.5215 117.764 71.393H114.812C114.729 70.83 114.509 70.377 114.151 70.0345C113.799 69.687 113.336 69.5135 112.764 69.5135C112.279 69.5135 111.856 69.6455 111.493 69.91C111.136 70.169 110.857 70.5485 110.657 71.048C110.456 71.547 110.355 72.1515 110.355 72.8615C110.355 73.581 110.453 74.1925 110.649 74.697C110.85 75.201 111.131 75.585 111.493 75.8495C111.856 76.114 112.279 76.246 112.764 76.246C113.121 76.246 113.442 76.1725 113.725 76.0255C114.014 75.879 114.252 75.666 114.438 75.387C114.629 75.103 114.753 74.763 114.812 74.3665H117.764C117.715 75.228 117.48 75.9865 117.059 76.6425C116.643 77.2935 116.068 77.8025 115.333 78.1695C114.599 78.5365 113.73 78.7205 112.727 78.7205ZM124.911 78.7205C123.77 78.7205 122.784 78.478 121.952 77.9935C121.125 77.504 120.486 76.8235 120.036 75.9525C119.585 75.076 119.36 74.0605 119.36 72.9055C119.36 71.7405 119.585 70.7225 120.036 69.851C120.486 68.975 121.125 68.2945 121.952 67.81C122.784 67.3205 123.77 67.076 124.911 67.076C126.051 67.076 127.035 67.3205 127.862 67.81C128.694 68.2945 129.336 68.975 129.786 69.851C130.236 70.7225 130.461 71.7405 130.461 72.9055C130.461 74.0605 130.236 75.076 129.786 75.9525C129.336 76.8235 128.694 77.504 127.862 77.9935C127.035 78.478 126.051 78.7205 124.911 78.7205ZM124.925 76.2975C125.444 76.2975 125.877 76.1505 126.225 75.857C126.572 75.5585 126.834 75.152 127.011 74.638C127.192 74.124 127.282 73.539 127.282 72.8835C127.282 72.2275 127.192 71.6425 127.011 71.1285C126.834 70.6145 126.572 70.2085 126.225 69.91C125.877 69.611 125.444 69.462 124.925 69.462C124.402 69.462 123.961 69.611 123.604 69.91C123.251 70.2085 122.985 70.6145 122.804 71.1285C122.627 71.6425 122.539 72.2275 122.539 72.8835C122.539 73.539 122.627 74.124 122.804 74.638C122.985 75.152 123.251 75.5585 123.604 75.857C123.961 76.1505 124.402 76.2975 124.925 76.2975ZM132.544 78.5V67.2225H135.525V69.2125H135.657C135.892 68.5515 136.284 68.03 136.832 67.6485C137.38 67.2665 138.036 67.076 138.8 67.076C139.573 67.076 140.231 67.269 140.775 67.656C141.318 68.0375 141.68 68.5565 141.861 69.2125H141.979C142.209 68.566 142.625 68.05 143.227 67.663C143.834 67.2715 144.551 67.076 145.378 67.076C146.431 67.076 147.285 67.411 147.941 68.0815C148.601 68.7475 148.932 69.692 148.932 70.9155V78.5H145.811V71.5325C145.811 70.906 145.645 70.436 145.312 70.1225C144.979 69.8095 144.563 69.653 144.064 69.653C143.496 69.653 143.053 69.834 142.735 70.196C142.417 70.5535 142.258 71.026 142.258 71.613V78.5H139.226V71.4665C139.226 70.913 139.066 70.4725 138.748 70.145C138.435 69.817 138.021 69.653 137.507 69.653C137.16 69.653 136.847 69.741 136.568 69.917C136.294 70.0885 136.076 70.331 135.914 70.644C135.753 70.9525 135.672 71.3145 135.672 71.7305V78.5H132.544ZM151.452 82.729V67.2225H154.535V69.117H154.675C154.812 68.8135 155.01 68.505 155.269 68.192C155.534 67.8735 155.876 67.6095 156.297 67.399C156.723 67.1835 157.252 67.076 157.883 67.076C158.705 67.076 159.464 67.291 160.159 67.722C160.854 68.1475 161.41 68.7915 161.826 69.653C162.242 70.5095 162.45 71.584 162.45 72.876C162.45 74.134 162.247 75.196 161.841 76.0625C161.439 76.924 160.891 77.5775 160.196 78.023C159.506 78.4635 158.732 78.6835 157.876 78.6835C157.269 78.6835 156.752 78.583 156.327 78.3825C155.906 78.182 155.561 77.93 155.291 77.6265C155.022 77.318 154.817 77.007 154.675 76.694H154.579V82.729H151.452ZM154.513 72.8615C154.513 73.532 154.606 74.117 154.792 74.616C154.978 75.1155 155.247 75.5045 155.6 75.7835C155.952 76.0575 156.38 76.1945 156.885 76.1945C157.394 76.1945 157.824 76.055 158.177 75.776C158.529 75.492 158.796 75.1005 158.977 74.6015C159.163 74.097 159.256 73.517 159.256 72.8615C159.256 72.2105 159.166 71.6375 158.984 71.1435C158.803 70.649 158.537 70.262 158.184 69.983C157.832 69.704 157.399 69.5645 156.885 69.5645C156.376 69.5645 155.945 69.6995 155.592 69.9685C155.245 70.238 154.978 70.6195 154.792 71.114C154.606 71.6085 154.513 72.1905 154.513 72.8615ZM167.8 78.713C167.081 78.713 166.439 78.588 165.876 78.3385C165.314 78.084 164.868 77.7095 164.54 77.215C164.217 76.716 164.056 76.0945 164.056 75.3505C164.056 74.7235 164.171 74.1975 164.401 73.7715C164.631 73.346 164.944 73.0035 165.34 72.744C165.737 72.4845 166.187 72.2885 166.691 72.1565C167.2 72.0245 167.734 71.9315 168.292 71.8775C168.948 71.809 169.477 71.7455 169.878 71.6865C170.279 71.623 170.57 71.53 170.752 71.4075C170.933 71.285 171.023 71.104 171.023 70.8645V70.82C171.023 70.355 170.876 69.9955 170.583 69.741C170.294 69.4865 169.883 69.359 169.349 69.359C168.786 69.359 168.338 69.484 168.006 69.7335C167.673 69.9785 167.453 70.2865 167.345 70.6585L164.452 70.4235C164.599 69.7385 164.888 69.146 165.318 68.647C165.749 68.143 166.305 67.756 166.985 67.487C167.67 67.213 168.463 67.076 169.364 67.076C169.99 67.076 170.59 67.149 171.163 67.296C171.74 67.443 172.252 67.6705 172.697 67.979C173.148 68.287 173.502 68.6835 173.762 69.1685C174.021 69.648 174.151 70.223 174.151 70.8935V78.5H171.185V76.936H171.097C170.916 77.2885 170.673 77.5995 170.37 77.8685C170.066 78.133 169.702 78.341 169.276 78.4925C168.85 78.6395 168.358 78.713 167.8 78.713ZM168.696 76.5545C169.156 76.5545 169.562 76.464 169.915 76.2825C170.267 76.0965 170.544 75.847 170.744 75.534C170.945 75.2205 171.045 74.8655 171.045 74.469V73.2725C170.947 73.336 170.813 73.395 170.641 73.4485C170.475 73.4975 170.287 73.544 170.076 73.588C169.866 73.6275 169.655 73.664 169.445 73.6985C169.234 73.7275 169.043 73.7545 168.872 73.779C168.505 73.833 168.184 73.9185 167.91 74.036C167.636 74.1535 167.423 74.3125 167.271 74.5135C167.12 74.709 167.044 74.954 167.044 75.2475C167.044 75.6735 167.198 75.999 167.506 76.224C167.82 76.444 168.216 76.5545 168.696 76.5545ZM179.754 71.9805V78.5H176.627V67.2225H179.608V69.2125H179.74C179.989 68.5565 180.408 68.0375 180.995 67.656C181.583 67.269 182.295 67.076 183.132 67.076C183.915 67.076 184.598 67.247 185.18 67.5895C185.763 67.9325 186.215 68.422 186.538 69.058C186.862 69.6895 187.023 70.4435 187.023 71.3195V78.5H183.895V71.8775C183.9 71.1875 183.724 70.649 183.367 70.262C183.009 69.8705 182.517 69.675 181.891 69.675C181.47 69.675 181.098 69.7655 180.775 69.9465C180.457 70.1275 180.207 70.392 180.026 70.7395C179.85 71.082 179.759 71.4955 179.754 71.9805ZM191.064 82.729C190.668 82.729 190.296 82.697 189.948 82.6335C189.606 82.575 189.322 82.499 189.097 82.406L189.802 80.071C190.169 80.184 190.499 80.245 190.793 80.2545C191.091 80.2645 191.348 80.196 191.564 80.049C191.784 79.9025 191.963 79.6525 192.1 79.3005L192.283 78.823L188.238 67.2225H191.527L193.862 75.5045H193.979L196.336 67.2225H199.647L195.264 79.719C195.054 80.3255 194.767 80.8545 194.405 81.3045C194.048 81.76 193.595 82.11 193.047 82.3545C192.499 82.604 191.838 82.729 191.064 82.729Z" fill="white"/>
<defs>
<linearGradient id="paint0_linear_5_11" x1="1.34235" y1="26.0887" x2="198.847" y2="24.0261" gradientUnits="userSpaceOnUse">
<stop stop-color="#DC2626"/>
<stop offset="0.197917" stop-color="#CA8A04"/>
<stop offset="0.421875" stop-color="#FFF500"/>
<stop offset="0.598958" stop-color="#16A34A"/>
<stop offset="0.786458" stop-color="#2563EB"/>
<stop offset="1" stop-color="#9333EA"/>
</linearGradient>
</defs>
</svg>
